<svg width="55" height="54" viewBox="0 0 55 54" fill="none" xmlns="http://www.w3.org/2000/svg">
<circle cx="27.1838" cy="27" r="25.5" transform="rotate(-90 27.1838 27)" fill="url(#paint0_linear)" stroke="#C4C4C4" stroke-width="3"/>
<path d="M32.2874 18.4192L35.5374 12.7901L31.1894 14.3211L21.9394 30.3426L24.1044 31.5926L31.6044 18.6022L32.2874 18.4192Z" fill="#C4C4C4"/>
<path d="M32.2874 18.4192L35.5374 12.7901L36.3855 17.3211L27.1355 33.3426L24.9704 32.0926L32.4705 19.1022L32.2874 18.4192Z" fill="#C4C4C4"/>
<path d="M23.7874 33.1417L19.0243 30.3917L16.2922 31.1237L16.6582 32.4898L18.7073 31.9407L20.8723 33.1907L20.7384 35.4228L22.2874 35.7398L23.7874 33.1417Z" fill="#C4C4C4"/>
<path d="M23.7874 33.1417L28.5506 35.8917L29.2826 38.6237L27.9166 38.9898L27.3675 36.9407L25.2025 35.6907L23.3364 36.9228L22.2874 35.7398L23.7874 33.1417Z" fill="#C4C4C4"/>
<path d="M22.2695 39.7709C21.7172 40.7274 20.494 41.0552 19.5374 40.5029C18.5808 39.9506 18.2531 38.7274 18.8054 37.7709C19.3576 36.8143 20.5808 36.4865 21.5374 37.0388C22.494 37.5911 22.8217 38.8143 22.2695 39.7709Z" fill="#C4C4C4"/>
<defs>
<linearGradient id="paint0_linear" x1="27.1838" y1="-1.90735e-06" x2="27.1838" y2="54" gradientUnits="userSpaceOnUse">
<stop stop-color="#150C85"/>
<stop offset="1"/>
</linearGradient>
</defs>
</svg>
