<svg width="54" height="55" viewBox="0 0 54 55" fill="none" xmlns="http://www.w3.org/2000/svg">
<circle cx="27" cy="27.0244" r="25.5" fill="url(#paint0_linear)" stroke="#C4C4C4" stroke-width="3"/>
<path fill-rule="evenodd" clip-rule="evenodd" d="M17 17.262C17 17.262 17.6792 17.703 18.7308 18.0196C20.3864 18.518 22.9651 18.7079 25.2692 16.382C25.8721 15.7734 26.4562 14.9926 27 14V40C26.4893 39.7746 25.9004 39.4891 25.2692 39.1513C21.7804 37.2843 17 33.8227 17 30.1181V17.262ZM27 37.9852V17.262C26.7919 17.4081 24.85 18.9204 24.6363 19.0429C23.1864 19.8737 21.7249 20.1081 20.4492 20.0548C19.8268 20.0287 19.248 19.9345 18.7308 19.8089V30.1181C18.7308 31.4763 19.8326 33.13 21.8608 34.8236C22.9363 35.7217 25.8733 37.3335 27 37.9852Z" fill="#C4C4C4"/>
<path d="M27 14C30.9423 21.1956 37 17.262 37 17.262V30.1181C37 34.493 30.3333 38.5289 27 40V14Z" fill="#C4C4C4"/>
<defs>
<linearGradient id="paint0_linear" x1="27" y1="0.0244446" x2="27" y2="54.0244" gradientUnits="userSpaceOnUse">
<stop stop-color="#150C85"/>
<stop offset="1"/>
</linearGradient>
</defs>
</svg>
